<svg xmlns="http://www.w3.org/2000/svg" version="1.1" width="2560px" height="1809px" style="shape-rendering:geometricPrecision; text-rendering:geometricPrecision; image-rendering:optimizeQuality; fill-rule:evenodd; clip-rule:evenodd" xmlns:xlink="http://www.w3.org/1999/xlink"><g><path style="opacity:0.993" fill="#61dafb" d="M 1563.5,236.5 C 1624.21,230.769 1670.04,253.769 1701,305.5C 1716.06,334.085 1725.73,364.418 1730,396.5C 1737.2,459.385 1735.54,522.051 1725,584.5C 1721.37,606.328 1717.37,627.994 1713,649.5C 1774.62,668.231 1833.46,693.398 1889.5,725C 1923.7,745.048 1954.54,769.548 1982,798.5C 2040,866.5 2040,934.5 1982,1002.5C 1949.41,1036.86 1912.24,1065.03 1870.5,1087C 1820.62,1113.45 1768.62,1134.61 1714.5,1150.5C 1725.63,1199.25 1732.8,1248.58 1736,1298.5C 1739.37,1346.08 1735.7,1393.08 1725,1439.5C 1695.53,1545 1627.69,1583.17 1521.5,1554C 1490.42,1544.64 1460.75,1531.97 1432.5,1516C 1377.72,1483.77 1327.06,1445.93 1280.5,1402.5C 1232.44,1448.74 1179.44,1488.24 1121.5,1521C 1084.27,1541.97 1044.6,1555.97 1002.5,1563C 937.007,1572.33 888.174,1548.5 856,1491.5C 842.169,1463.34 833.169,1433.67 829,1402.5C 821.925,1340.95 823.591,1279.61 834,1218.5C 837.885,1196.08 841.885,1173.75 846,1151.5C 787.085,1133.31 730.585,1109.48 676.5,1080C 640.908,1059.76 608.741,1034.93 580,1005.5C 520.389,939.434 518.389,871.767 574,802.5C 601.01,772.474 631.844,747.308 666.5,727C 723.074,694.383 782.74,668.883 845.5,650.5C 831.566,590.297 823.9,529.297 822.5,467.5C 822.341,427.774 827.507,388.774 838,350.5C 865.84,260.149 926.34,223.983 1019.5,242C 1054.98,250.273 1088.65,263.273 1120.5,281C 1178.12,313.613 1230.96,352.779 1279,398.5C 1325.25,354.571 1375.75,316.404 1430.5,284C 1471.95,259.687 1516.28,243.854 1563.5,236.5 Z M 1575.5,304.5 C 1610.23,303.092 1634.07,318.426 1647,350.5C 1657.21,376.536 1663.21,403.536 1665,431.5C 1668.42,499.069 1662.09,565.735 1646,631.5C 1582.96,616.076 1519.12,604.909 1454.5,598C 1415.89,545.037 1373.89,494.703 1328.5,447C 1375.45,402.043 1427.45,364.043 1484.5,333C 1513.23,317.92 1543.56,308.42 1575.5,304.5 Z M 975.5,305.5 C 1001.85,307.254 1027.18,313.421 1051.5,324C 1100.85,346.656 1146.19,375.323 1187.5,410C 1201.8,421.961 1215.8,434.295 1229.5,447C 1184.82,495.001 1143.15,545.334 1104.5,598C 1040.06,604.851 976.392,616.018 913.5,631.5C 896.314,566.646 889.481,500.646 893,433.5C 894.432,400.439 902.432,369.106 917,339.5C 929.954,316.939 949.454,305.605 975.5,305.5 Z M 1277.5,496.5 C 1283.74,501.236 1289.58,506.569 1295,512.5C 1317.92,538.08 1340.08,564.246 1361.5,591C 1333.35,590.2 1305.19,589.7 1277,589.5C 1250.14,589.647 1223.31,590.147 1196.5,591C 1221.97,558.258 1248.97,526.758 1277.5,496.5 Z M 1240.5,658.5 C 1276.51,658.257 1312.51,658.757 1348.5,660C 1371.25,660.838 1393.91,662.505 1416.5,665C 1468.54,739.2 1513.87,817.7 1552.5,900.5C 1513.63,983.463 1468.29,1062.3 1416.5,1137C 1325.5,1145.65 1234.5,1145.65 1143.5,1137C 1091.88,1063.31 1046.71,985.477 1008,903.5C 1007.33,901.833 1007.33,900.167 1008,898.5C 1046.64,816.982 1091.31,739.316 1142,665.5C 1153.04,663.648 1164.21,662.481 1175.5,662C 1197.32,660.738 1218.99,659.571 1240.5,658.5 Z M 1049.5,674.5 C 1050.55,674.351 1051.55,674.517 1052.5,675C 1022.94,720.617 995.769,767.784 971,816.5C 954.733,778.032 941.067,738.698 930,698.5C 969.632,689.007 1009.46,681.007 1049.5,674.5 Z M 1506.5,675.5 C 1547.28,680.487 1587.78,688.154 1628,698.5C 1617.27,738.348 1603.94,777.348 1588,815.5C 1563.08,767.295 1535.91,720.628 1506.5,675.5 Z M 1695.5,716.5 C 1748.84,732.507 1799.84,754.007 1848.5,781C 1880.83,799.326 1909.67,822.159 1935,849.5C 1943.13,859.421 1949.46,870.421 1954,882.5C 1959.44,901.287 1956.77,918.954 1946,935.5C 1934.97,951.536 1922.13,966.036 1907.5,979C 1862.13,1014.7 1812.13,1042.7 1757.5,1063C 1737.32,1070.17 1717.15,1077.34 1697,1084.5C 1677.91,1021.56 1655.08,960.055 1628.5,900C 1654.88,840.348 1677.22,779.181 1695.5,716.5 Z M 859.5,717.5 C 860.833,717.5 862.167,717.5 863.5,717.5C 881.383,780.317 903.716,841.483 930.5,901C 904.252,960.739 881.752,1021.91 863,1084.5C 798.127,1065.14 737.293,1037.31 680.5,1001C 658.512,986.349 639.012,968.849 622,948.5C 596,916.5 596,884.5 622,852.5C 638.302,833.196 656.802,816.362 677.5,802C 716.229,775.966 757.563,754.633 801.5,738C 820.905,731.034 840.238,724.201 859.5,717.5 Z M 1587.5,984.5 C 1588.79,985.058 1589.62,986.058 1590,987.5C 1604.66,1024.97 1617.82,1062.97 1629.5,1101.5C 1589.07,1112.42 1548.07,1120.59 1506.5,1126C 1536.15,1080.47 1563.15,1033.31 1587.5,984.5 Z M 970.5,985.5 C 995.914,1033.5 1023.25,1080.33 1052.5,1126C 1011.6,1120.49 971.101,1112.65 931,1102.5C 941.854,1062.77 955.02,1023.77 970.5,985.5 Z M 912.5,1169.5 C 976.074,1184.76 1040.41,1195.93 1105.5,1203C 1142.94,1254.79 1183.77,1303.96 1228,1350.5C 1229.29,1352.05 1229.96,1353.72 1230,1355.5C 1189.96,1392.55 1146.79,1425.39 1100.5,1454C 1075.74,1468.38 1049.74,1480.04 1022.5,1489C 1003.21,1495.15 983.547,1497.15 963.5,1495C 943.717,1491.52 928.883,1481.02 919,1463.5C 905.088,1436.52 897.088,1407.86 895,1377.5C 891.213,1329.28 893.213,1281.28 901,1233.5C 904.644,1212.12 908.477,1190.78 912.5,1169.5 Z M 1643.5,1169.5 C 1644.83,1169.5 1646.17,1169.5 1647.5,1169.5C 1657.87,1215.28 1664.37,1261.61 1667,1308.5C 1668.76,1341.74 1666.76,1374.74 1661,1407.5C 1656.92,1431.64 1647.92,1453.64 1634,1473.5C 1620.5,1488.74 1603.5,1495.74 1583,1494.5C 1554.52,1492.92 1527.36,1486.09 1501.5,1474C 1437.78,1442.91 1380.78,1402.58 1330.5,1353C 1374.84,1305.34 1416.17,1255.34 1454.5,1203C 1509.59,1196.6 1564.26,1187.6 1618.5,1176C 1627.07,1174.26 1635.4,1172.09 1643.5,1169.5 Z M 1197.5,1210.5 C 1199.3,1209.84 1201.3,1209.5 1203.5,1209.5C 1256.51,1211.98 1309.51,1212.15 1362.5,1210C 1337.16,1243.13 1309.83,1274.63 1280.5,1304.5C 1250.94,1274.64 1223.28,1243.3 1197.5,1210.5 Z"/></g><g><path style="opacity:0.997" fill="#61dafb" d="M 1263.5,761.5 C 1324.49,757.738 1370.65,781.738 1402,833.5C 1422.84,875.699 1423.84,918.366 1405,961.5C 1378.15,1011.61 1336.15,1037.61 1279,1039.5C 1226.84,1037.94 1186.84,1015.28 1159,971.5C 1133,924.167 1133,876.833 1159,829.5C 1183.4,790.878 1218.23,768.211 1263.5,761.5 Z"/></g></svg>
