<svg xmlns="http://www.w3.org/2000/svg" version="1.1" width="500px" height="500px" style="shape-rendering:geometricPrecision; text-rendering:geometricPrecision; image-rendering:optimizeQuality; fill-rule:evenodd; clip-rule:evenodd" xmlns:xlink="http://www.w3.org/1999/xlink"><g><path style="opacity:0.992" fill="#6772e5" d="M 251.5,93.5 C 282.259,92.919 311.926,98.2524 340.5,109.5C 341.833,136.5 341.833,163.5 340.5,190.5C 310.049,174.51 277.716,167.677 243.5,170C 229.228,173.709 225.061,182.209 231,195.5C 233.537,198.372 236.37,200.872 239.5,203C 259.265,211.255 279.265,218.922 299.5,226C 345.889,245.268 364.723,279.768 356,329.5C 349.058,359.781 331.224,380.947 302.5,393C 281.712,401.024 260.212,405.191 238,405.5C 205.72,404.844 174.72,398.177 145,385.5C 144.167,358.161 144.333,330.827 145.5,303.5C 173.934,319.566 204.434,328.566 237,330.5C 246.364,331.094 255.197,329.261 263.5,325C 271.019,317.738 272.186,309.571 267,300.5C 263.749,296.578 259.916,293.412 255.5,291C 231.271,281.552 207.271,271.552 183.5,261C 149.402,241.631 135.569,212.464 142,173.5C 149.917,135.245 172.75,110.745 210.5,100C 224.092,96.4307 237.759,94.2641 251.5,93.5 Z"/></g></svg>
