<svg xmlns="http://www.w3.org/2000/svg" version="1.1" width="256px" height="256px" style="shape-rendering:geometricPrecision; text-rendering:geometricPrecision; image-rendering:optimizeQuality; fill-rule:evenodd; clip-rule:evenodd" xmlns:xlink="http://www.w3.org/1999/xlink"><g><path style="opacity:0.251" fill="#9fd0c0" d="M 148.5,64.5 C 171.661,63.5025 194.994,63.1691 218.5,63.5C 218.539,66.089 217.539,68.089 215.5,69.5C 216.038,67.8828 216.371,66.2161 216.5,64.5C 204.833,64.5 193.167,64.5 181.5,64.5C 170.5,64.5 159.5,64.5 148.5,64.5 Z"/></g><g><path style="opacity:0.759" fill="#74b39b" d="M 108.5,64.5 C 98.1667,64.5 87.8333,64.5 77.5,64.5C 76.7611,64.369 76.0944,64.5357 75.5,65C 76.9711,66.5833 77.9711,68.4166 78.5,70.5C 77.5041,70.5858 76.6708,70.2524 76,69.5C 75.6905,68.2341 75.1905,67.0674 74.5,66C 64.8051,65.2173 55.1384,65.384 45.5,66.5C 44.8333,66.8333 44.1667,67.1667 43.5,67.5C 45.2944,70.987 46.6278,74.6537 47.5,78.5C 45.347,76.2063 43.6803,73.5396 42.5,70.5C 42.2503,68.326 41.2503,66.6594 39.5,65.5C 50.6467,64.1677 62.1467,63.501 74,63.5C 85.6716,63.5001 97.1716,63.8335 108.5,64.5 Z"/></g><g><path style="opacity:0.791" fill="#50a383" d="M 181.5,64.5 C 193.167,64.5 204.833,64.5 216.5,64.5C 216.371,66.2161 216.038,67.8828 215.5,69.5C 215.167,69.5 214.833,69.5 214.5,69.5C 214.5,68.1667 214.5,66.8333 214.5,65.5C 203.828,65.3335 193.161,65.5002 182.5,66C 180.871,69.4268 179.371,72.9268 178,76.5C 177.329,77.2524 176.496,77.5858 175.5,77.5C 175.5,76.5 175.5,75.5 175.5,74.5C 177.831,71.4715 179.831,68.1382 181.5,64.5 Z"/></g><g><path style="opacity:1" fill="#34495e" d="M 77.5,64.5 C 87.8333,64.5 98.1667,64.5 108.5,64.5C 109.338,64.8417 109.672,65.5084 109.5,66.5C 109.427,68.0269 110.094,69.0269 111.5,69.5C 112.674,70.5137 113.34,71.847 113.5,73.5C 113.427,75.0269 114.094,76.0269 115.5,76.5C 116.338,76.8417 116.672,77.5084 116.5,78.5C 116.427,80.0269 117.094,81.0269 118.5,81.5C 119.338,81.8417 119.672,82.5084 119.5,83.5C 119.427,85.0269 120.094,86.0269 121.5,86.5C 122.674,87.5137 123.34,88.847 123.5,90.5C 123.427,92.0269 124.094,93.0269 125.5,93.5C 126.674,94.5137 127.34,95.847 127.5,97.5C 128.167,100.167 128.833,100.167 129.5,97.5C 129.328,96.5084 129.662,95.8417 130.5,95.5C 131.906,95.0269 132.573,94.0269 132.5,92.5C 133.167,92.5 133.833,92.5 134.5,92.5C 138.44,91.3785 140.273,88.7118 140,84.5C 141.333,81.8333 143.333,79.8333 146,78.5C 145.351,75.0728 146.685,72.4061 150,70.5C 152.209,73.1413 152.709,75.9746 151.5,79C 153.134,79.4935 154.801,79.6602 156.5,79.5C 158.386,73.236 159.386,73.236 159.5,79.5C 160.833,79.5 162.167,79.5 163.5,79.5C 162.053,88.1356 162.72,88.4689 165.5,80.5C 166.723,79.3861 168.056,79.2195 169.5,80C 168.299,80.9025 167.465,82.0692 167,83.5C 165.905,87.6083 164.738,91.6083 163.5,95.5C 161.071,96.2648 159.738,97.9315 159.5,100.5C 158.325,100.281 157.325,100.614 156.5,101.5C 154.688,104.603 153.688,107.936 153.5,111.5C 152.624,111.369 151.957,111.702 151.5,112.5C 149.39,117.714 147.056,122.714 144.5,127.5C 143.566,128.568 143.232,129.901 143.5,131.5C 140.956,132.708 139.622,134.708 139.5,137.5C 139.5,138.167 139.5,138.833 139.5,139.5C 137.281,141.575 135.281,143.909 133.5,146.5C 132.761,146.369 132.094,146.536 131.5,147C 128.728,152.835 126.728,152.335 125.5,145.5C 127.27,143.287 127.603,140.954 126.5,138.5C 125.833,139.833 125.167,141.167 124.5,142.5C 121.835,140.043 119.168,137.71 116.5,135.5C 116.727,133.067 115.727,131.401 113.5,130.5C 113.068,129.29 112.401,128.29 111.5,127.5C 111.5,127.167 111.5,126.833 111.5,126.5C 111.66,124.801 111.494,123.134 111,121.5C 108.702,117.851 106.202,114.518 103.5,111.5C 103.167,111.5 102.833,111.5 102.5,111.5C 102.408,109.152 101.408,107.486 99.5,106.5C 98.6597,104.147 97.3264,102.147 95.5,100.5C 95.9227,98.2188 95.256,96.5521 93.5,95.5C 93.6567,94.1266 93.49,92.7932 93,91.5C 88.8118,85.2973 85.4785,78.6306 83,71.5C 81.9887,70.6634 80.8221,70.33 79.5,70.5C 79.7475,68.1417 79.0808,66.1417 77.5,64.5 Z"/></g><g><path style="opacity:0.133" fill="#b1e3ce" d="M 39.5,65.5 C 41.2503,66.6594 42.2503,68.326 42.5,70.5C 40.7497,69.3406 39.7497,67.674 39.5,65.5 Z"/></g><g><path style="opacity:1" fill="#354959" d="M 148.5,64.5 C 159.5,64.5 170.5,64.5 181.5,64.5C 179.831,68.1382 177.831,71.4715 175.5,74.5C 176.468,71.5547 176.634,68.5547 176,65.5C 172.384,66.2377 168.718,66.9044 165,67.5C 161.345,66.0104 157.845,66.1771 154.5,68C 155.5,69 156.5,70 157.5,71C 161.425,70.5941 162.425,72.4274 160.5,76.5C 164.21,77.7582 167.877,77.7582 171.5,76.5C 170.207,80.0857 169.207,83.7524 168.5,87.5C 167.058,89.5396 166.058,91.873 165.5,94.5C 165.043,95.2975 164.376,95.6309 163.5,95.5C 164.738,91.6083 165.905,87.6083 167,83.5C 167.465,82.0692 168.299,80.9025 169.5,80C 168.056,79.2195 166.723,79.3861 165.5,80.5C 162.72,88.4689 162.053,88.1356 163.5,79.5C 162.167,79.5 160.833,79.5 159.5,79.5C 159.386,73.236 158.386,73.236 156.5,79.5C 154.801,79.6602 153.134,79.4935 151.5,79C 152.709,75.9746 152.209,73.1413 150,70.5C 146.685,72.4061 145.351,75.0728 146,78.5C 143.333,79.8333 141.333,81.8333 140,84.5C 140.273,88.7118 138.44,91.3785 134.5,92.5C 134.629,90.7839 134.962,89.1172 135.5,87.5C 137.931,85.954 139.264,83.6207 139.5,80.5C 141.25,79.3406 142.25,77.674 142.5,75.5C 142.328,74.5084 142.662,73.8417 143.5,73.5C 144.906,73.0269 145.573,72.0269 145.5,70.5C 147.408,69.5144 148.408,67.8477 148.5,65.5C 148.5,65.1667 148.5,64.8333 148.5,64.5 Z"/></g><g><path style="opacity:1" fill="#41b783" d="M 78.5,70.5 C 79.1098,71.391 79.4431,72.391 79.5,73.5C 78.1266,73.3433 76.7932,73.51 75.5,74C 79.9205,75.0894 82.0871,77.9228 82,82.5C 84.705,85.0362 87.205,87.7029 89.5,90.5C 89.8571,95.001 91.8571,98.3343 95.5,100.5C 95.53,103.852 96.8633,106.518 99.5,108.5C 100.272,109.694 101.272,110.694 102.5,111.5C 102.338,113.527 102.505,115.527 103,117.5C 105.027,120.221 106.527,123.221 107.5,126.5C 108.689,127.429 110.022,127.762 111.5,127.5C 111.063,130.807 111.73,133.807 113.5,136.5C 111.69,138.707 111.357,141.041 112.5,143.5C 113.148,141.851 114.148,140.518 115.5,139.5C 118.01,141.187 119.51,143.52 120,146.5C 121.615,147.386 123.115,148.386 124.5,149.5C 124.241,151.989 125.241,153.656 127.5,154.5C 128.183,156.176 129.517,156.843 131.5,156.5C 134.931,151.299 137.598,145.633 139.5,139.5C 139.5,138.833 139.5,138.167 139.5,137.5C 141.218,135.777 142.551,133.777 143.5,131.5C 145.104,130.713 145.771,129.38 145.5,127.5C 146.833,125.5 148.167,123.5 149.5,121.5C 155.051,117.227 158.385,111.56 159.5,104.5C 160.239,104.631 160.906,104.464 161.5,104C 165.631,99.2372 168.298,93.7372 169.5,87.5C 169.5,87.1667 169.5,86.8333 169.5,86.5C 173.209,84.7766 175.209,81.7766 175.5,77.5C 176.496,77.5858 177.329,77.2524 178,76.5C 179.371,72.9268 180.871,69.4268 182.5,66C 193.161,65.5002 203.828,65.3335 214.5,65.5C 214.5,66.8333 214.5,68.1667 214.5,69.5C 211.781,74.1243 208.615,78.4577 205,82.5C 204.506,84.1341 204.34,85.8008 204.5,87.5C 202.983,87.5106 201.816,88.1772 201,89.5C 199.53,92.7639 198.363,96.0973 197.5,99.5C 195.821,99.2852 194.821,99.9519 194.5,101.5C 191.142,105.164 188.808,109.497 187.5,114.5C 184.84,118.777 182.173,123.11 179.5,127.5C 178.548,129.045 178.215,130.712 178.5,132.5C 176.468,133.048 175.468,134.381 175.5,136.5C 174.325,136.281 173.325,136.614 172.5,137.5C 170.798,142.57 168.298,147.236 165,151.5C 163.86,154.102 163.027,156.769 162.5,159.5C 157.247,160.605 154.747,163.938 155,169.5C 153.233,173.067 151.067,176.401 148.5,179.5C 146.797,183.562 145.13,187.562 143.5,191.5C 142.5,191.5 141.5,191.5 140.5,191.5C 140.657,192.873 140.49,194.207 140,195.5C 136.003,200.902 133.17,206.902 131.5,213.5C 130.178,213.33 129.011,213.663 128,214.5C 126.338,210.852 124.671,207.186 123,203.5C 121.871,201.859 120.371,200.859 118.5,200.5C 117.326,199.486 116.66,198.153 116.5,196.5C 116.286,190.514 113.62,186.181 108.5,183.5C 108.798,179.399 107.132,176.733 103.5,175.5C 103.5,175.167 103.5,174.833 103.5,174.5C 99.558,167.13 96.058,159.464 93,151.5C 91.5315,148.858 89.3648,147.191 86.5,146.5C 86.5,146.167 86.5,145.833 86.5,145.5C 84.837,136.503 80.837,128.837 74.5,122.5C 72.0742,117.98 69.9076,113.314 68,108.5C 66.6927,106.808 65.1927,105.475 63.5,104.5C 62.8333,104.167 62.1667,103.833 61.5,103.5C 58.439,95.7082 54.7723,88.0415 50.5,80.5C 49.675,79.6143 48.675,79.281 47.5,79.5C 47.5,79.1667 47.5,78.8333 47.5,78.5C 46.6278,74.6537 45.2944,70.987 43.5,67.5C 44.1667,67.1667 44.8333,66.8333 45.5,66.5C 55.1384,65.384 64.8051,65.2173 74.5,66C 75.1905,67.0674 75.6905,68.2341 76,69.5C 76.6708,70.2524 77.5041,70.5858 78.5,70.5 Z"/></g><g><path style="opacity:0.145" fill="#a1acb7" d="M 145.5,70.5 C 145.573,72.0269 144.906,73.0269 143.5,73.5C 143.427,71.9731 144.094,70.9731 145.5,70.5 Z"/></g><g><path style="opacity:1" fill="#33485e" d="M 175.5,74.5 C 173.938,74.7329 172.605,75.3995 171.5,76.5C 167.877,77.7582 164.21,77.7582 160.5,76.5C 162.425,72.4274 161.425,70.5941 157.5,71C 156.5,70 155.5,69 154.5,68C 157.845,66.1771 161.345,66.0104 165,67.5C 168.718,66.9044 172.384,66.2377 176,65.5C 176.634,68.5547 176.468,71.5547 175.5,74.5 Z"/></g><g><path style="opacity:0.776" fill="#717e86" d="M 148.5,65.5 C 148.408,67.8477 147.408,69.5144 145.5,70.5C 145.75,68.326 146.75,66.6594 148.5,65.5 Z"/></g><g><path style="opacity:0.184" fill="#a7b7c4" d="M 109.5,66.5 C 110.906,66.9731 111.573,67.9731 111.5,69.5C 110.094,69.0269 109.427,68.0269 109.5,66.5 Z"/></g><g><path style="opacity:0.69" fill="#7ec2a4" d="M 214.5,69.5 C 214.833,69.5 215.167,69.5 215.5,69.5C 212.332,75.8417 208.665,81.8417 204.5,87.5C 204.34,85.8008 204.506,84.1341 205,82.5C 208.615,78.4577 211.781,74.1243 214.5,69.5 Z"/></g><g><path style="opacity:1" fill="#48a584" d="M 79.5,73.5 C 80.7942,74.2899 81.9609,75.2899 83,76.5C 85.4518,81.0683 87.6185,85.735 89.5,90.5C 87.205,87.7029 84.705,85.0362 82,82.5C 82.0871,77.9228 79.9205,75.0894 75.5,74C 76.7932,73.51 78.1266,73.3433 79.5,73.5 Z"/></g><g><path style="opacity:0.153" fill="#a5b0b8" d="M 113.5,73.5 C 114.906,73.9731 115.573,74.9731 115.5,76.5C 114.094,76.0269 113.427,75.0269 113.5,73.5 Z"/></g><g><path style="opacity:1" fill="#295656" d="M 175.5,74.5 C 175.5,75.5 175.5,76.5 175.5,77.5C 172.723,79.9505 170.723,82.9505 169.5,86.5C 169.5,86.8333 169.5,87.1667 169.5,87.5C 169.167,87.5 168.833,87.5 168.5,87.5C 169.207,83.7524 170.207,80.0857 171.5,76.5C 172.605,75.3995 173.938,74.7329 175.5,74.5 Z"/></g><g><path style="opacity:0.133" fill="#a7b0bb" d="M 142.5,75.5 C 142.25,77.674 141.25,79.3406 139.5,80.5C 139.75,78.326 140.75,76.6594 142.5,75.5 Z"/></g><g><path style="opacity:0.129" fill="#b0bbc4" d="M 116.5,78.5 C 117.906,78.9731 118.573,79.9731 118.5,81.5C 117.094,81.0269 116.427,80.0269 116.5,78.5 Z"/></g><g><path style="opacity:1" fill="#285355" d="M 77.5,64.5 C 79.0808,66.1417 79.7475,68.1417 79.5,70.5C 80.8221,70.33 81.9887,70.6634 83,71.5C 85.4785,78.6306 88.8118,85.2973 93,91.5C 93.49,92.7932 93.6567,94.1266 93.5,95.5C 92.8724,93.3384 91.539,91.6718 89.5,90.5C 87.6185,85.735 85.4518,81.0683 83,76.5C 81.9609,75.2899 80.7942,74.2899 79.5,73.5C 79.4431,72.391 79.1098,71.391 78.5,70.5C 77.9711,68.4166 76.9711,66.5833 75.5,65C 76.0944,64.5357 76.7611,64.369 77.5,64.5 Z"/></g><g><path style="opacity:0.698" fill="#818b95" d="M 139.5,80.5 C 139.264,83.6207 137.931,85.954 135.5,87.5C 136.079,84.6689 137.412,82.3356 139.5,80.5 Z"/></g><g><path style="opacity:0.129" fill="#bec8ce" d="M 119.5,83.5 C 120.906,83.9731 121.573,84.9731 121.5,86.5C 120.094,86.0269 119.427,85.0269 119.5,83.5 Z"/></g><g><path style="opacity:1" fill="#4b9c81" d="M 175.5,77.5 C 175.209,81.7766 173.209,84.7766 169.5,86.5C 170.723,82.9505 172.723,79.9505 175.5,77.5 Z"/></g><g><path style="opacity:0.667" fill="#78bfa1" d="M 47.5,79.5 C 48.675,79.281 49.675,79.6143 50.5,80.5C 54.7723,88.0415 58.439,95.7082 61.5,103.5C 56.4698,95.7816 51.8031,87.7816 47.5,79.5 Z"/></g><g><path style="opacity:0.792" fill="#828d9a" d="M 135.5,87.5 C 134.962,89.1172 134.629,90.7839 134.5,92.5C 133.833,92.5 133.167,92.5 132.5,92.5C 132.75,90.326 133.75,88.6594 135.5,87.5 Z"/></g><g><path style="opacity:0.149" fill="#b6c1c8" d="M 123.5,90.5 C 124.906,90.9731 125.573,91.9731 125.5,93.5C 124.094,93.0269 123.427,92.0269 123.5,90.5 Z"/></g><g><path style="opacity:0.133" fill="#bdc5cc" d="M 132.5,92.5 C 132.573,94.0269 131.906,95.0269 130.5,95.5C 130.427,93.9731 131.094,92.9731 132.5,92.5 Z"/></g><g><path style="opacity:1" fill="#479f81" d="M 89.5,90.5 C 91.539,91.6718 92.8724,93.3384 93.5,95.5C 95.256,96.5521 95.9227,98.2188 95.5,100.5C 91.8571,98.3343 89.8571,95.001 89.5,90.5 Z"/></g><g><path style="opacity:0.373" fill="#96a6b1" d="M 127.5,97.5 C 128.167,97.5 128.833,97.5 129.5,97.5C 128.833,100.167 128.167,100.167 127.5,97.5 Z"/></g><g><path style="opacity:0.898" fill="#74be9d" d="M 204.5,87.5 C 201.67,93.8302 198.337,99.8302 194.5,105.5C 194.5,104.167 194.5,102.833 194.5,101.5C 194.821,99.9519 195.821,99.2852 197.5,99.5C 198.363,96.0973 199.53,92.7639 201,89.5C 201.816,88.1772 202.983,87.5106 204.5,87.5 Z"/></g><g><path style="opacity:1" fill="#4aa183" d="M 95.5,100.5 C 97.3264,102.147 98.6597,104.147 99.5,106.5C 99.5,107.167 99.5,107.833 99.5,108.5C 96.8633,106.518 95.53,103.852 95.5,100.5 Z"/></g><g><path style="opacity:1" fill="#4aa686" d="M 168.5,87.5 C 168.833,87.5 169.167,87.5 169.5,87.5C 168.298,93.7372 165.631,99.2372 161.5,104C 160.906,104.464 160.239,104.631 159.5,104.5C 160.553,101.393 161.886,98.3929 163.5,95.5C 164.376,95.6309 165.043,95.2975 165.5,94.5C 166.058,91.873 167.058,89.5396 168.5,87.5 Z"/></g><g><path style="opacity:0.106" fill="#b4dfce" d="M 61.5,103.5 C 62.1667,103.833 62.8333,104.167 63.5,104.5C 63.5,105.167 63.5,105.833 63.5,106.5C 62.0937,106.027 61.427,105.027 61.5,103.5 Z"/></g><g><path style="opacity:1" fill="#2c5158" d="M 163.5,95.5 C 161.886,98.3929 160.553,101.393 159.5,104.5C 157.719,107.091 155.719,109.425 153.5,111.5C 153.688,107.936 154.688,104.603 156.5,101.5C 157.325,100.614 158.325,100.281 159.5,100.5C 159.738,97.9315 161.071,96.2648 163.5,95.5 Z"/></g><g><path style="opacity:0.447" fill="#a3d8c1" d="M 63.5,107.5 C 65.7964,108.733 67.1298,110.733 67.5,113.5C 65.684,111.882 64.3507,109.882 63.5,107.5 Z"/></g><g><path style="opacity:1" fill="#337669" d="M 99.5,106.5 C 101.408,107.486 102.408,109.152 102.5,111.5C 101.272,110.694 100.272,109.694 99.5,108.5C 99.5,107.833 99.5,107.167 99.5,106.5 Z"/></g><g><path style="opacity:0.922" fill="#5db38e" d="M 63.5,104.5 C 65.1927,105.475 66.6927,106.808 68,108.5C 69.9076,113.314 72.0742,117.98 74.5,122.5C 80.837,128.837 84.837,136.503 86.5,145.5C 80.9181,136.673 75.5847,127.673 70.5,118.5C 70.2503,116.326 69.2503,114.659 67.5,113.5C 67.1298,110.733 65.7964,108.733 63.5,107.5C 63.5,107.167 63.5,106.833 63.5,106.5C 63.5,105.833 63.5,105.167 63.5,104.5 Z"/></g><g><path style="opacity:0.125" fill="#a1d9bf" d="M 67.5,113.5 C 69.2503,114.659 70.2503,116.326 70.5,118.5C 68.7497,117.341 67.7497,115.674 67.5,113.5 Z"/></g><g><path style="opacity:1" fill="#2d575a" d="M 103.5,111.5 C 106.202,114.518 108.702,117.851 111,121.5C 111.494,123.134 111.66,124.801 111.5,126.5C 110.115,125.426 108.949,124.093 108,122.5C 105.946,119.059 104.446,115.392 103.5,111.5 Z"/></g><g><path style="opacity:1" fill="#4aa086" d="M 159.5,104.5 C 158.385,111.56 155.051,117.227 149.5,121.5C 150.833,118.167 152.167,114.833 153.5,111.5C 155.719,109.425 157.719,107.091 159.5,104.5 Z"/></g><g><path style="opacity:0.69" fill="#68b995" d="M 194.5,101.5 C 194.5,102.833 194.5,104.167 194.5,105.5C 189.404,114.701 184.07,123.701 178.5,132.5C 178.215,130.712 178.548,129.045 179.5,127.5C 182.173,123.11 184.84,118.777 187.5,114.5C 188.808,109.497 191.142,105.164 194.5,101.5 Z"/></g><g><path style="opacity:1" fill="#4bad89" d="M 102.5,111.5 C 102.833,111.5 103.167,111.5 103.5,111.5C 104.446,115.392 105.946,119.059 108,122.5C 108.949,124.093 110.115,125.426 111.5,126.5C 111.5,126.833 111.5,127.167 111.5,127.5C 110.022,127.762 108.689,127.429 107.5,126.5C 106.527,123.221 105.027,120.221 103,117.5C 102.505,115.527 102.338,113.527 102.5,111.5 Z"/></g><g><path style="opacity:1" fill="#2a5658" d="M 153.5,111.5 C 152.167,114.833 150.833,118.167 149.5,121.5C 148.167,123.5 146.833,125.5 145.5,127.5C 145.167,127.5 144.833,127.5 144.5,127.5C 147.056,122.714 149.39,117.714 151.5,112.5C 151.957,111.702 152.624,111.369 153.5,111.5 Z"/></g><g><path style="opacity:1" fill="#327e6b" d="M 144.5,127.5 C 144.833,127.5 145.167,127.5 145.5,127.5C 145.771,129.38 145.104,130.713 143.5,131.5C 143.232,129.901 143.566,128.568 144.5,127.5 Z"/></g><g><path style="opacity:1" fill="#2f6e63" d="M 113.5,130.5 C 115.727,131.401 116.727,133.067 116.5,135.5C 115.11,134.101 114.11,132.434 113.5,130.5 Z"/></g><g><path style="opacity:1" fill="#326b60" d="M 143.5,131.5 C 142.551,133.777 141.218,135.777 139.5,137.5C 139.622,134.708 140.956,132.708 143.5,131.5 Z"/></g><g><path style="opacity:1" fill="#48ad87" d="M 111.5,127.5 C 112.401,128.29 113.068,129.29 113.5,130.5C 114.11,132.434 115.11,134.101 116.5,135.5C 119.167,140.167 121.833,144.833 124.5,149.5C 123.115,148.386 121.615,147.386 120,146.5C 119.51,143.52 118.01,141.187 115.5,139.5C 114.148,140.518 113.148,141.851 112.5,143.5C 111.357,141.041 111.69,138.707 113.5,136.5C 111.73,133.807 111.063,130.807 111.5,127.5 Z"/></g><g><path style="opacity:0.557" fill="#67b593" d="M 178.5,132.5 C 173.415,141.673 168.082,150.673 162.5,159.5C 163.027,156.769 163.86,154.102 165,151.5C 168.298,147.236 170.798,142.57 172.5,137.5C 173.325,136.614 174.325,136.281 175.5,136.5C 175.468,134.381 176.468,133.048 178.5,132.5 Z"/></g><g><path style="opacity:1" fill="#2d4e58" d="M 116.5,135.5 C 119.168,137.71 121.835,140.043 124.5,142.5C 125.167,141.167 125.833,139.833 126.5,138.5C 127.603,140.954 127.27,143.287 125.5,145.5C 126.728,152.335 128.728,152.835 131.5,147C 132.094,146.536 132.761,146.369 133.5,146.5C 132.347,148.807 131.18,151.14 130,153.5C 129.329,154.252 128.496,154.586 127.5,154.5C 126.89,152.566 125.89,150.899 124.5,149.5C 121.833,144.833 119.167,140.167 116.5,135.5 Z"/></g><g><path style="opacity:1" fill="#44977e" d="M 139.5,139.5 C 137.598,145.633 134.931,151.299 131.5,156.5C 129.517,156.843 128.183,156.176 127.5,154.5C 128.496,154.586 129.329,154.252 130,153.5C 131.18,151.14 132.347,148.807 133.5,146.5C 135.281,143.909 137.281,141.575 139.5,139.5 Z"/></g><g><path style="opacity:1" fill="#3d8a76" d="M 124.5,149.5 C 125.89,150.899 126.89,152.566 127.5,154.5C 125.241,153.656 124.241,151.989 124.5,149.5 Z"/></g><g><path style="opacity:0.796" fill="#5fb28f" d="M 86.5,146.5 C 89.3648,147.191 91.5315,148.858 93,151.5C 96.058,159.464 99.558,167.13 103.5,174.5C 97.8478,165.203 92.1811,155.869 86.5,146.5 Z"/></g><g><path style="opacity:0.38" fill="#5fb28f" d="M 103.5,175.5 C 107.132,176.733 108.798,179.399 108.5,183.5C 106.847,180.869 105.181,178.203 103.5,175.5 Z"/></g><g><path style="opacity:0.888" fill="#5db28b" d="M 108.5,183.5 C 113.62,186.181 116.286,190.514 116.5,196.5C 113.084,192.677 110.418,188.343 108.5,183.5 Z"/></g><g><path style="opacity:0.878" fill="#5fb48f" d="M 162.5,159.5 C 152.163,177.508 141.83,195.508 131.5,213.5C 133.17,206.902 136.003,200.902 140,195.5C 140.49,194.207 140.657,192.873 140.5,191.5C 141.5,191.5 142.5,191.5 143.5,191.5C 145.13,187.562 146.797,183.562 148.5,179.5C 151.067,176.401 153.233,173.067 155,169.5C 154.747,163.938 157.247,160.605 162.5,159.5 Z"/></g><g><path style="opacity:0.851" fill="#61b693" d="M 118.5,200.5 C 120.371,200.859 121.871,201.859 123,203.5C 124.671,207.186 126.338,210.852 128,214.5C 129.011,213.663 130.178,213.33 131.5,213.5C 131.174,216.001 129.841,217.168 127.5,217C 124.094,211.686 121.094,206.186 118.5,200.5 Z"/></g></svg>
